<svg xmlns="http://www.w3.org/2000/svg" viewBox="0 0 331.46 511.18"><defs><style>.e9ca6106-fa97-49cf-9693-aba712876a2e{fill:#313131;}.bf9dd17c-5537-43ea-9bd7-0ad383386106{fill:#6a6a6a;}.a9cbd564-4a15-4011-ac22-177f8e94a6d1{fill:#e20e08;}.a4b66c5b-023b-44bc-bf48-1918cbe19013{fill:#d4d7da;}.a77cbffb-0cf0-4898-8f63-9a7c8166b169{fill:#e2e7eb;}.f393f888-bf6d-452b-8558-74cb081ef4bb{fill:#fbc300;}.f40657d2-4ad7-4000-8e9f-6a17e3c82c12{fill:#c30606;}.b996073c-6e73-4321-b891-4b1c918b0486{fill:#9fd8f1;}</style></defs><g id="e2f16821-ec4f-4846-8cc7-832fa604c02c" data-name="Capa 2"><g id="ae4631aa-1dc4-49ac-8d93-b64bba187dff" data-name="Capa 1"><path d="M81.59,136.4c-2.74-2.47-2.9-5.33-1.7-8.69a316.68,316.68,0,0,1,51.2-92.5C134.5,31,138,26.82,141.52,22.63c.41-.49,1-.9.53-1.67l1.7-1.69a1,1,0,0,0,1.13-1.13l1.69-1.69c2.78-1.5,4.45-4.22,6.79-6.21,3.26-3.06,6.12-6.54,9.65-9.33,3.29-2,5.8-.42,8.12,1.83a314.44,314.44,0,0,1,46.26,55.7Q281.06,157.26,266.52,274c-.47,3.84.59,5.14,4,6.48,24.38,9.57,41.88,26.51,52.79,50.29,1.93,4.2,1.36,6-2.82,9.49-3.91,1.39-6.46.54-8.65-3.07-2-3.28-3.38-6.9-5.39-10.18a86,86,0,0,0-14.7-18.15,81.17,81.17,0,0,0-22.88-14.93c-4.06-1.76-4.16-1.64-5,2.84-5.5,28-15.15,54.68-27.86,80.22-2.48,5-5.12,9.91-8,14.66-1.36,2.23-1.1,3.89,1.28,5.27a59.23,59.23,0,0,1,16.26,13.82c8.1,10.6,11.19,22.43,8.64,35.61-.75,3.83-.53,4.09,3.42,3a79.16,79.16,0,0,0,27.75-13.6c18.26-13.82,28.91-32.24,32.24-54.83.79-5.35,1.38-10.8.57-16.27a12.24,12.24,0,0,1,.55-6.69c1-2.35,2.42-4.17,5.39-3.62,5.38.63,6.83,2.15,7.2,7.57,3.67,54-35,99-88.94,103.32-2.83.23-5.39-.11-7-2.73s-.74-5.24.91-7.77c7.48-11.54,7.65-23.28-.17-34.62-4.77-6.91-11.63-11.56-19.7-15.07.42,4.45.93,8.71,1.21,13,1.32,20-2.58,38.8-12.84,56.14-3.15,5.32-8.32,5.37-11.47.09-1.2-2-2.3-4.08-3.85-6.84-1.65,4.66-3,8.6-4.43,12.49a207.79,207.79,0,0,1-12.24,25.82c-3.86,7.15-9.82,7.32-13.89.16a189.7,189.7,0,0,1-15.31-34.42c-.37-1.13-.76-2.24-1.23-3.63-2,1.64-2.58,3.88-3.6,5.78-1.34,2.49-2.93,4.47-6,4.52s-4.77-1.89-6.17-4.31c-10-17.17-13.88-35.72-12.65-55.43.27-4.35.83-8.68,1.31-13.52-12.84,6.46-23.37,14.29-25.21,29.54a28.69,28.69,0,0,0,4,18.32c.54.91,1.15,1.79,1.72,2.68,1.46,2.29,1.9,4.59.38,7.08s-3.93,2.92-6.55,2.73c-19.72-1.46-37.47-8.06-53-20.39-.5-.39-.94-1-1.71-.6l-1.69-1.69a8.16,8.16,0,0,0-4-3.95l-5.08-5.08a1.82,1.82,0,0,0-1.69-1.69L19.58,429c-1-4.37-4.4-7.33-6.56-11a95.94,95.94,0,0,1,7.35-107.36,93.12,93.12,0,0,1,41.81-30.69c2.6-.95,3.31-2,2.92-4.85-5.29-38.48-3.23-76.64,5.29-114.5,1.21-5.41,2.68-6.77,7.91-7.05,3.53,0,4.89,2.15,5.15,5.33a26,26,0,0,1-.85,7.5,312.64,312.64,0,0,0-6.48,44.95,326.5,326.5,0,0,0,.62,49.74,303.69,303.69,0,0,0,15.59,72.31,298.19,298.19,0,0,0,25.6,54.83,5.34,5.34,0,0,0,5.22,2.87c5.71-.08,11.43,0,17.14-.05,22.61.11,45.22,0,67.83.08a6,6,0,0,0,5.76-3.35A307.58,307.58,0,0,0,251.66,284.6,311.21,311.21,0,0,0,256.2,233a297.17,297.17,0,0,0-4.18-51.2,312.51,312.51,0,0,0-10.32-42.6c-3-9.49-6.74-18.76-10.51-28-1.09-2.69-2.77-2.75-5.07-2.25a267,267,0,0,1-30.31,4.82,301.47,301.47,0,0,1-65.24-.59c-8.21-.65-16.22-2.55-24.33-3.85-4.79-.76-4.73-.77-6.67,3.83-2.83,6.71-5.1,13.65-8.09,20.29C89.36,138.21,85.91,139.14,81.59,136.4Z"/><path class="e9ca6106-fa97-49cf-9693-aba712876a2e" d="M29.18,438.6c2.16.47,3.62,1.64,4,3.95Z"/><path class="bf9dd17c-5537-43ea-9bd7-0ad383386106" d="M22.41,431.83c1.47-.35,1.79.47,1.69,1.69Z"/><path class="a9cbd564-4a15-4011-ac22-177f8e94a6d1" d="M324,354.34c-4.93,1.51-5.21,5.34-4.91,9.59a81,81,0,0,1-13.39,51.5c-12.31,18.7-29.53,30.58-51.34,35.74-.75.18-1.53.22-2.73.39,4.59-14.76,2.16-28.05-6.78-40.18-2-2-1.39-3.9,0-6,16.47-24,29.54-49.7,38.27-77.53,1.82-5.81,3.67-11.63,5-17.6.42-1.9.93-4.26,3.88-2.49a78.71,78.71,0,0,1,19.75,27.14c1.73,3.89,4.3,5.92,8.65,5.32A68.9,68.9,0,0,1,324,354.34Z"/><path class="a4b66c5b-023b-44bc-bf48-1918cbe19013" d="M81.59,136.4c5.49,1.75,7.61.71,9.75-4.71,2.83-7.14,5.74-14.25,8.46-21.44.84-2.22,1.75-3,4.3-2.46,8.84,1.75,17.75,3.16,26.62,4.7.91,3.66-.78,7-1.34,10.46-1.4,8.75-2.82,17.48-4,26.26a13.08,13.08,0,0,1-1.14,4.59c-2.93,4.11-6.94,7.22-9.91,11.36-16,22.32-15.61,53.35,1.14,75,1.45,1.88,2.92,3.77,4.23,5.76,1.11,5.1.69,10.31.91,15.45a594.54,594.54,0,0,0,12.58,99.47c2,9.23,4.23,18.38,6.72,27.48.31,1.14.88,2.25.52,3.49-6.5.07-13,.07-19.48.25-1.86,0-2.4-1-3.19-2.35A307.28,307.28,0,0,1,81.23,168.1c.42-1.95.77-3.91,1.23-5.85,1-4-.17-7.05-4.16-8.71,1.2-4.35,2.37-8.7,3.64-13C82.38,139,82.72,137.69,81.59,136.4Z"/><path class="a77cbffb-0cf0-4898-8f63-9a7c8166b169" d="M140.4,391.84c-3.35-7.42-4.56-15.45-6.46-23.26-5.64-23.15-9.18-46.69-11.75-70.34-1.29-11.94-2.19-23.95-2.5-36-.14-5.15-.78-10.29-.28-15.45,3.74.76,5.88,3.92,8.64,6,21.55,16.53,53.79,16.26,75.59-.14a63.56,63.56,0,0,0,22.49-69.45c-7.63-25.08-30.71-42.68-55.51-44.19-15.64-1-29.76,2.8-42.4,12.08-1.26.93-2.53,2-4.3,1.8,1.81-13.56,3.57-27.13,6.8-40.45,22,2.07,44,2.59,66.05.25A253.22,253.22,0,0,0,227,107.86c2.44-.57,3.66-.23,4.76,2.34Q272.23,205,248.38,305.12a301.09,301.09,0,0,1-34.63,84.68c-.8,1.35-1.4,2.29-3.22,2.28C187.15,392,163.77,391.91,140.4,391.84Z"/><path class="a9cbd564-4a15-4011-ac22-177f8e94a6d1" d="M86.64,411.39c-8.85,12.69-9.92,18.66-7.07,40.51C49.28,444.63,28,427.21,17.19,398.12c-11.71-31.64-2.84-67.56,21.13-89.24,3.41-2.5,4.15-2.28,5.14,1.78C51.89,345,66.67,376.34,86.6,405.38,88,407.48,88.66,409.37,86.64,411.39Z"/><path class="a9cbd564-4a15-4011-ac22-177f8e94a6d1" d="M176.12,25.55c18,18.7,32.59,39.8,44.81,62.6,4.22,7.86,4.14,7.94-4.65,9.55-26.72,4.89-53.61,5.53-80.61,3a23.25,23.25,0,0,1-2.7-.59c-.81-1.57-.23-3.14.13-4.66a452.35,452.35,0,0,1,21-66.38c2.14-5.32,6.37-9,10.3-12.92,1.18-1.19,2-.79,3,.24C170.22,19.48,173.58,22.12,176.12,25.55Z"/><path class="f393f888-bf6d-452b-8558-74cb081ef4bb" d="M198.77,458.82c-2-3.63-3.76-6.83-5.45-10.07-1.4-2.69-3.33-4.52-6.56-4.21-3.48.33-4.86,2.73-5.6,5.83-3.35,14-7.66,27.61-14.11,40.5-.28.58-.62,1.13-1.21,2.17a83.32,83.32,0,0,1-7.53-16.33,203.87,203.87,0,0,1-7.94-26.28c-.69-3.1-2.07-5.53-5.55-5.88s-5.34,1.66-6.78,4.5c-1.6,3.15-3.38,6.21-5.37,9.84a79.55,79.55,0,0,1-6.73-28.59,110.57,110.57,0,0,1,1.56-23.82c.29-1.9.94-2.35,2.75-2.35q35.49.09,71,0c1.4,0,2.38,0,2.71,1.9,3,17.36,2.45,34.4-4.24,50.94C199.54,457.45,199.27,457.87,198.77,458.82Z"/><path class="f40657d2-4ad7-4000-8e9f-6a17e3c82c12" d="M86.64,411.39a4.87,4.87,0,0,0-.56-5.12,281.66,281.66,0,0,1-28.62-51,245.78,245.78,0,0,1-15-45.11c-.77-3.44-2.41-1.92-4.1-1.26,7.75-7.68,16.88-13.17,26.93-17.31,3.1-1.27,2.65,1.11,2.93,2.52a309.24,309.24,0,0,0,18.76,61.65,260.75,260.75,0,0,0,17.77,35.59c1.87,3,1.73,4.65-1.68,6.39C96.59,401,91.39,406,86.64,411.39Z"/><path class="f40657d2-4ad7-4000-8e9f-6a17e3c82c12" d="M292.07,307.76c-1.88-.48-2.51.55-2.9,2.2-7,30.1-19.32,58-35.59,84.13-2.57,4.15-5.27,8.22-8.14,12.16a4.85,4.85,0,0,0-.57,5.13,62,62,0,0,0-18.1-14.69c-2.3-1.18-1.41-2.64-.47-4.26a318,318,0,0,0,15.27-29.73,313.25,313.25,0,0,0,21.26-66.25c1.15-5.71,1.22-5.8,6.7-3.41A78.83,78.83,0,0,1,292.07,307.76Z"/><path class="f40657d2-4ad7-4000-8e9f-6a17e3c82c12" d="M176.12,25.55c-2.75-2.7-5.57-5.33-8.22-8.12-1.54-1.61-2.54-1.44-4.27-.07-6,4.8-8.55,11.61-11.11,18.45-7.68,20.52-14.37,41.33-19.05,62.76a13.35,13.35,0,0,1-.5,1.51c-8.24-.41-16.27-2.17-24.35-3.62-2.1-.38-1.81-1.2-1.05-2.67a304.91,304.91,0,0,1,37.64-56.87C151,30,157,23.24,163.2,16.74c1.9-2,3.22-2.3,5,0C170.7,19.78,174.2,22,176.12,25.55Z"/><path d="M123.92,152.94c15.6-12.35,33.12-17.42,52.93-14.25,46.56,7.45,69.22,64.38,40.45,101.7-21.37,27.71-57.62,34-87.08,15.18a79.22,79.22,0,0,1-10.81-8.77c-14.25-15.84-20.39-34.22-17-55.41a62,62,0,0,1,18.47-35.34C121.89,155,122.9,154,123.92,152.94Z"/><path class="a9cbd564-4a15-4011-ac22-177f8e94a6d1" d="M128.88,165.08a52.23,52.23,0,1,1,0,73.93A52.28,52.28,0,0,1,128.88,165.08Z"/><path d="M197.81,170.21a45.19,45.19,0,1,1-63.75-.37A45,45,0,0,1,197.81,170.21Z"/><path class="b996073c-6e73-4321-b891-4b1c918b0486" d="M189.15,178.62c12.87,12.86,12.83,34.34-.08,47a33.12,33.12,0,1,1,.08-47Z"/></g></g></svg>