          <svg xmlns="http://www.w3.org/2000/svg" viewBox="0 0 235.45 264.51" class="svg-logo">
            <defs><style>.cls-1,.cls-2{fill:#fff;}.cls-1{stroke:#fff;stroke-miterlimit:10;stroke-width:2px;}.cls-3{fill:#f50537;}</style></defs><title>sshexa-fill</title><g id="Capa_2" data-name="Capa 2"><g id="Capa_1-2" data-name="Capa 1"><path class="cls-1" d="M117.73,263.51a22.81,22.81,0,0,1-11.38-3l-94-54.26A22.81,22.81,0,0,1,1,186.51V78A22.82,22.82,0,0,1,12.38,58.29L106.35,4a22.84,22.84,0,0,1,22.76,0l94,54.25A22.82,22.82,0,0,1,234.45,78V186.51a22.81,22.81,0,0,1-11.38,19.7l-94,54.26A22.84,22.84,0,0,1,117.73,263.51ZM117.73,2a21.7,21.7,0,0,0-10.88,2.91l-94,54.25A21.81,21.81,0,0,0,2,78V186.51a21.82,21.82,0,0,0,10.88,18.84l94,54.25a21.79,21.79,0,0,0,21.76,0l94-54.25a21.82,21.82,0,0,0,10.88-18.84V78a21.81,21.81,0,0,0-10.88-18.84l-94-54.25A21.75,21.75,0,0,0,117.73,2Z"/><path class="cls-2" d="M213.57,200.44l-84.71,48.91a22.29,22.29,0,0,1-22.26,0L21.89,200.44a22.27,22.27,0,0,1-11.13-19.28V83.35A22.24,22.24,0,0,1,21.89,64.07L106.6,15.16a22.24,22.24,0,0,1,22.26,0l84.71,48.91A22.26,22.26,0,0,1,224.7,83.35v97.81A22.29,22.29,0,0,1,213.57,200.44Z"/><g id="Capa_2-2" data-name="Capa 2"><g id="Capa_1-2-2" data-name="Capa 1-2"><path class="cls-3" d="M123.81,158.63a30.07,30.07,0,0,1,3.63-4.17c2.69-2.21,4.8-1.42,5.11,2a63.2,63.2,0,0,1,0,10.11c-.71,9.77-4.82,18.5-10.7,25.81-4.69,5.91-11.94,9.21-19.2,11.91a62.29,62.29,0,0,1-28.14,3.61c-18.09-1.82-33.27-9.42-44.26-24.41-1.19-1.61-.85-3,.32-4.68A121.09,121.09,0,0,1,44,163.18c1.59-1.58,3.17-3.18,4.75-4.77,4.6-4.61,5.36-4.59,10.31.07a42.46,42.46,0,0,0,16.7,10c5.73,1.76,11.5,2.71,16.25-2.49,2.13-2.34,2.43-4.31-.12-6.92-4.61-4.72-10.12-8-15.86-11-9.84-5-19.7-10.16-27.71-17.84A44.85,44.85,0,0,1,34.8,105c-1.9-11.21.8-21.26,7.49-30.24,6.81-9.14,15.71-15.55,27-17.3C82,55.49,94.6,55.61,106.74,61c5,2.24,9.4,5.44,13.77,8.65,1.62,1.2,2.36,1.09,4.07.08,6.61-3.91,13-8.11,20.9-9.59,16.23-3,31.21-1,44.69,8.92,3.9,2.88,7.93,5.66,10.75,9.85,1.29,1.92,1.75,3.41.22,5.25-5.44,6.51-10.77,13.13-17.56,18.35-1.67,1.29-3.07.31-4.38-.43-4.83-2.76-9.15-6.34-14.22-8.73-6.54-3-12.54-2-17,3-1.88,2.11-1.82,4.17.11,6.19,5.14,5.41,11.76,8.5,18.22,11.89,10.21,5.35,20.76,10.25,28.8,18.89,6.79,7.25,10.12,16,10.74,26,.91,14.67-5.11,26.18-15.74,35.56-6,5.33-13.44,8-21.28,9.37a69,69,0,0,1-13.44,1.44c-10-.25-19.73-2.14-28.69-7-3.59-1.93-4.13-3.37-1.64-6.6a49.56,49.56,0,0,0,9.52-19.37c1.3-5.75,1.1-11.57,1-17.37-.13-9.27.09-6.66,7.3-8.79.76-.23,2,.49,2.26-.58.32-1.24-1-1.47-1.83-1.89-3.72-1.85-8-2.75-10.45-6.66a77.9,77.9,0,0,1-8.06-16.19c-.55-1.65,0-1.54,1.16-1.73,4-.69,8.06-1.71,12.14-2.13,4.24-.43,8.48-.84,12.69-1.57.74-.13,1.86.47,2-1a1.86,1.86,0,0,0-1.34-2c-2.7-1-5.36-2.19-8.13-3-8.2-2.42-16.41-4.8-24.67-7-5.45-1.45-8.32-5.43-10.83-10a25.16,25.16,0,0,0-6.73-8.19c-1.27-.94-2.87-3.08-4.8-1.51-1.65,1.35-1.48,3.73-1.27,5.64.5,4.68,2.7,8.9,5.26,12.63a10.9,10.9,0,0,1,1.6,10.25q-4.71,14.87-8.28,30.05c-.51,2.18-1.59,5.74-.49,6.23,2,.88,3.37-2.13,4.68-3.66,4.14-4.8,7.82-10,12-14.8,3.18-3.66,3.26-3.39,6.1.5,3.31,4.52,5.5,9.7,8.58,14.34,1.33,2-.17,3.91-.37,5.85-.28,2.65-.86,5.26-1.31,7.89Z"/></g></g></g></g>
            </svg>  