<svg xmlns="http://www.w3.org/2000/svg" viewBox="0 0 794.36 247.1"><defs><style>.eae2c18a-6a6a-4438-8487-5c4eef161f38{fill:#afafaf;}.b24bad3e-2c75-4d6a-80f5-2122d2b892b9,.bc07a638-ed46-4185-95b0-b3f0a0e0b1e3{stroke:#000;stroke-miterlimit:10;}.b24bad3e-2c75-4d6a-80f5-2122d2b892b9{stroke-width:1.5px;}.bc07a638-ed46-4185-95b0-b3f0a0e0b1e3,.e7115b94-c222-4673-9153-5162369ab163{fill:#fff;}.bc07a638-ed46-4185-95b0-b3f0a0e0b1e3{stroke-width:3px;}.b577d767-f767-4003-ba09-cab2d5afce2b{fill:#f50537;}</style></defs><g id="b4615f72-c0be-4515-97b2-1c0a312aabb6" data-name="Capa 2"><g id="b2519ea4-dbe1-4836-a350-d1c6623ef716" data-name="Capa 1"><path class="eae2c18a-6a6a-4438-8487-5c4eef161f38" d="M614.8,37.44s-.08,0-.11,0A.14.14,0,0,1,614.8,37.44Z"/><path class="b24bad3e-2c75-4d6a-80f5-2122d2b892b9" d="M2.66,239.18c-.89,0-1.22-.54-.85-1.33l10.78-23.5a1.39,1.39,0,0,1,1.36-.87h1a1.41,1.41,0,0,1,1.37.87l10.77,23.5c.37.79,0,1.33-.88,1.33h-.44a1.38,1.38,0,0,1-1.36-.86L20.1,229H8.8l-4.3,9.36a1.39,1.39,0,0,1-1.36.86Zm11.81-22.53-4.53,9.79h9Z"/><path class="b24bad3e-2c75-4d6a-80f5-2122d2b892b9" d="M55.19,226.19c0-7.06,6.18-13,13.72-13a13.46,13.46,0,0,1,10.78,5.33c.59.75.19,1.4-.77,1.4h-.41a1.79,1.79,0,0,1-1.43-.65,11.32,11.32,0,0,0-8.17-3.45,10.55,10.55,0,1,0,0,21.09,11,11,0,0,0,9.2-4.89v-4.65a1,1,0,0,1,1.18-1.15h.33a1,1,0,0,1,1.18,1.15V238a1,1,0,0,1-1.18,1.15h-.33A1,1,0,0,1,78.11,238v-2a13.81,13.81,0,0,1-9.2,3.46A13.56,13.56,0,0,1,55.19,226.19Z"/><path class="b24bad3e-2c75-4d6a-80f5-2122d2b892b9" d="M115,239.18a1,1,0,0,1-1.18-1.15V214.64a1,1,0,0,1,1.18-1.16h12.88a1,1,0,0,1,1.17,1.16v.21a1,1,0,0,1-1.17,1.15H116.48v7.2h10.67a1,1,0,0,1,1.17,1.15v.22a1,1,0,0,1-1.17,1.15H116.48v10.95h11.37a1,1,0,0,1,1.17,1.15V238a1,1,0,0,1-1.17,1.15Z"/><path class="b24bad3e-2c75-4d6a-80f5-2122d2b892b9" d="M163.2,239.18A1,1,0,0,1,162,238V214.64a1,1,0,0,1,1.18-1.16h1.18a1.56,1.56,0,0,1,1.39.72l15.93,21.38V214.64a1,1,0,0,1,1.18-1.16h.33a1,1,0,0,1,1.18,1.16V238a1,1,0,0,1-1.18,1.15H182a1.54,1.54,0,0,1-1.39-.72l-15.93-21.38V238a1,1,0,0,1-1.18,1.15Z"/><path class="b24bad3e-2c75-4d6a-80f5-2122d2b892b9" d="M239.68,233.07c.92,0,1.25.64.66,1.4a13.72,13.72,0,0,1-10.7,5.07,13.55,13.55,0,0,1-13.72-13.31c0-7.06,6.18-13,13.72-13a13.8,13.8,0,0,1,10.59,4.93c.63.75.22,1.4-.73,1.4h-.7a1.88,1.88,0,0,1-1.47-.61,11,11,0,0,0-7.69-3.1,10.55,10.55,0,1,0,7.76,17.89,1.83,1.83,0,0,1,1.47-.64Z"/><path class="b24bad3e-2c75-4d6a-80f5-2122d2b892b9" d="M274.41,239.18a1,1,0,0,1-1.18-1.15V214.64a1,1,0,0,1,1.18-1.16h.33a1,1,0,0,1,1.18,1.16V238a1,1,0,0,1-1.18,1.15Z"/><path class="b24bad3e-2c75-4d6a-80f5-2122d2b892b9" d="M307.81,239.18c-.88,0-1.21-.54-.84-1.33l10.77-23.5a1.41,1.41,0,0,1,1.37-.87h1a1.39,1.39,0,0,1,1.36.87l10.78,23.5c.37.79,0,1.33-.88,1.33h-.44a1.4,1.4,0,0,1-1.37-.86l-4.3-9.36H314l-4.31,9.36a1.38,1.38,0,0,1-1.36.86Zm11.81-22.53-4.52,9.79h9Z"/><path class="b24bad3e-2c75-4d6a-80f5-2122d2b892b9" d="M403,239.18A1,1,0,0,1,401.8,238V214.64a1,1,0,0,1,1.18-1.16h5.81c9.53,0,13.36,3.68,13.36,12.85s-3.83,12.85-13.36,12.85Zm5.81-2.51c7.55,0,10.56-3,10.56-10.34s-3-10.33-10.56-10.33h-4.3v20.67Z"/><path class="b24bad3e-2c75-4d6a-80f5-2122d2b892b9" d="M455.22,239.18A1,1,0,0,1,454,238V214.64a1,1,0,0,1,1.18-1.16H468.1a1,1,0,0,1,1.17,1.16v.21A1,1,0,0,1,468.1,216H456.73v7.2H467.4a1,1,0,0,1,1.17,1.15v.22a1,1,0,0,1-1.17,1.15H456.73v10.95H468.1a1,1,0,0,1,1.17,1.15V238a1,1,0,0,1-1.17,1.15Z"/><path class="b24bad3e-2c75-4d6a-80f5-2122d2b892b9" d="M549.91,239.18a1.31,1.31,0,0,1-1.36-.89l-10.12-23.47c-.36-.8,0-1.34.89-1.34h.44a1.32,1.32,0,0,1,1.36.9l9.27,21.42,9.23-21.42a1.33,1.33,0,0,1,1.37-.9h.44c.88,0,1.25.54.88,1.34l-10.12,23.47a1.31,1.31,0,0,1-1.36.89Z"/><path class="b24bad3e-2c75-4d6a-80f5-2122d2b892b9" d="M595.23,239.18a1,1,0,0,1-1.17-1.15V214.64a1,1,0,0,1,1.17-1.16h.33a1,1,0,0,1,1.18,1.16V238a1,1,0,0,1-1.18,1.15Z"/><path class="b24bad3e-2c75-4d6a-80f5-2122d2b892b9" d="M628.64,239.18c-.89,0-1.22-.54-.85-1.33l10.78-23.5a1.39,1.39,0,0,1,1.36-.87h1a1.41,1.41,0,0,1,1.37.87l10.77,23.5c.37.79,0,1.33-.88,1.33h-.44a1.38,1.38,0,0,1-1.36-.86L646.07,229H634.78l-4.3,9.36a1.39,1.39,0,0,1-1.36.86Zm11.81-22.53-4.53,9.79h9Z"/><path class="b24bad3e-2c75-4d6a-80f5-2122d2b892b9" d="M679.33,244.87c0-.72.41-1.08,1.14-1.19,3.94-.39,6.22-3,6.22-7.16V214.64a1,1,0,0,1,1.18-1.16h.33a1,1,0,0,1,1.17,1.16v21.88c0,5.8-3.23,9.36-8.82,9.83a1.06,1.06,0,0,1-1.22-1.15Z"/><path class="b24bad3e-2c75-4d6a-80f5-2122d2b892b9" d="M723.92,239.18a1,1,0,0,1-1.18-1.15V214.64a1,1,0,0,1,1.18-1.16h12.87a1,1,0,0,1,1.18,1.16v.21a1,1,0,0,1-1.18,1.15H725.43v7.2H736.1a1,1,0,0,1,1.17,1.15v.22a1,1,0,0,1-1.17,1.15H725.43v10.95h11.36a1,1,0,0,1,1.18,1.15V238a1,1,0,0,1-1.18,1.15Z"/><path class="b24bad3e-2c75-4d6a-80f5-2122d2b892b9" d="M783,218.74a1.46,1.46,0,0,1-1.4-.86,4.65,4.65,0,0,0-3.89-2.16,4.43,4.43,0,0,0-4.75,4.24c0,2.23,1.58,3.24,4.75,4.21,4.89,1.52,8.53,3.39,8.53,7.89s-3.79,7.45-8.53,7.45a8.38,8.38,0,0,1-8.21-5.62c-.22-.79.22-1.26,1.07-1.26H771a1.29,1.29,0,0,1,1.32,1,5.75,5.75,0,0,0,5.38,3.27c3.2,0,5.73-1.84,5.73-4.82,0-2.38-1.58-3.67-5.73-4.93-4.9-1.48-7.55-3.28-7.55-7.17s3-6.87,7.55-6.87a7.25,7.25,0,0,1,6.88,4.35c.29.8-.15,1.3-1,1.3Z"/><path class="bc07a638-ed46-4185-95b0-b3f0a0e0b1e3" d="M1.5,83.53A61.6,61.6,0,0,1,5.89,60.44,58.34,58.34,0,0,1,18,41.44,56.14,56.14,0,0,1,58.75,24.28a56.62,56.62,0,0,1,22.71,4.58,59.19,59.19,0,0,1,18.61,12.59,58.31,58.31,0,0,1,12.58,19,59.52,59.52,0,0,1,4.57,23.09,57.31,57.31,0,0,1-4.57,22.79,58.93,58.93,0,0,1-31.19,31.28,56.62,56.62,0,0,1-22.71,4.59,46.66,46.66,0,0,1-12.08-1.53,51.09,51.09,0,0,1-10.81-4.21,54.89,54.89,0,0,1-9.46-6.35,67,67,0,0,1-8-7.93L18,176.25a8.86,8.86,0,0,1-2.26,6.17,7.6,7.6,0,0,1-5.92,2.5,7.89,7.89,0,0,1-5.86-2.5,8.49,8.49,0,0,1-2.44-6.17Zm57.74,41.94a41.22,41.22,0,0,0,16.36-3.29,42.38,42.38,0,0,0,13.42-9,43.42,43.42,0,0,0,9.1-13.36,40.3,40.3,0,0,0,3.36-16.42,41.7,41.7,0,0,0-3.36-16.54A39.87,39.87,0,0,0,89,53.45,43,43,0,0,0,59.24,41.61a41.15,41.15,0,0,0-29.3,12.15,43.49,43.49,0,0,0-12.2,30.09A40.12,40.12,0,0,0,21,100.08a41.86,41.86,0,0,0,22.1,22.1A40,40,0,0,0,59.24,125.47Z"/><path class="bc07a638-ed46-4185-95b0-b3f0a0e0b1e3" d="M138,126.81a58.54,58.54,0,0,1,4.7-23.37,59.66,59.66,0,0,1,12.82-19A61.27,61.27,0,0,1,174.46,71.7,57.39,57.39,0,0,1,197.59,67a58.19,58.19,0,0,1,23.32,4.7,59.56,59.56,0,0,1,31.61,31.8,58.58,58.58,0,0,1,4.64,23.31A57.87,57.87,0,0,1,252.52,150a59.67,59.67,0,0,1-12.69,18.86,60.32,60.32,0,0,1-18.92,12.75,58,58,0,0,1-23.32,4.7,57.22,57.22,0,0,1-23.13-4.7,61.24,61.24,0,0,1-18.92-12.75A60,60,0,0,1,142.72,150,57.4,57.4,0,0,1,138,126.81Zm16.24,0a41.41,41.41,0,0,0,3.42,16.67A44.56,44.56,0,0,0,167,157.27a43.5,43.5,0,0,0,13.74,9.34,42,42,0,0,0,16.9,3.42,42.89,42.89,0,0,0,30.83-12.76,44.4,44.4,0,0,0,9.15-13.79,42,42,0,0,0,3.36-16.67A42.76,42.76,0,0,0,237.57,110,42.64,42.64,0,0,0,214.68,86.9a42.69,42.69,0,0,0-17.09-3.42,42,42,0,0,0-16.9,3.42,43.39,43.39,0,0,0-23,23.07A42.12,42.12,0,0,0,154.26,126.81Z"/><path class="bc07a638-ed46-4185-95b0-b3f0a0e0b1e3" d="M324.11,168.93a7.71,7.71,0,0,1,5.79,2.32,7.9,7.9,0,0,1,2.26,5.74,7.55,7.55,0,0,1-7.93,7.93,42.71,42.71,0,0,1-16-2.93,36.83,36.83,0,0,1-12.7-8.36,38.08,38.08,0,0,1-8.36-13.06,46.19,46.19,0,0,1-3-17V33.07a8.28,8.28,0,0,1,2.26-5.93,7.5,7.5,0,0,1,5.67-2.38,8.19,8.19,0,0,1,5.8,2.38,7.86,7.86,0,0,1,2.5,5.93V143.29q0,12.21,6.29,18.93T324.11,168.93Z"/><path class="bc07a638-ed46-4185-95b0-b3f0a0e0b1e3" d="M406.92,186.26a56.8,56.8,0,0,1-23.07-4.7,59.13,59.13,0,0,1-18.68-12.75A60.7,60.7,0,0,1,352.6,150,57.87,57.87,0,0,1,348,126.81a58.75,58.75,0,0,1,4.63-23.31,61.4,61.4,0,0,1,12.56-19A58.58,58.58,0,0,1,383.81,71.7a59.14,59.14,0,0,1,46.21,0,58.69,58.69,0,0,1,31.16,31.74,59.86,59.86,0,0,1,4.57,23.37V177a8.15,8.15,0,0,1-2.42,6,8,8,0,0,1-5.94,2.44,7.21,7.21,0,0,1-5.75-2.44,8.82,8.82,0,0,1-2.12-6l-.12-8.79a59.26,59.26,0,0,1-18.86,13.24A57.24,57.24,0,0,1,406.92,186.26ZM406.86,170a41.83,41.83,0,0,0,30.5-12.76,44.61,44.61,0,0,0,8.92-47.3,42.9,42.9,0,0,0-8.92-13.79,42.1,42.1,0,0,0-30.5-12.7,41.18,41.18,0,0,0-16.81,3.42A42.63,42.63,0,0,0,367.49,110a43.44,43.44,0,0,0-3.3,16.84,42.71,42.71,0,0,0,3.3,16.67,44,44,0,0,0,9.05,13.79,42.39,42.39,0,0,0,13.51,9.34A41.18,41.18,0,0,0,406.86,170Z"/><path class="bc07a638-ed46-4185-95b0-b3f0a0e0b1e3" d="M495.47,129.26a60,60,0,0,1,4.88-24.11,63.15,63.15,0,0,1,33-33.21A58.78,58.78,0,0,1,557.23,67h1a8.26,8.26,0,0,1,6.17,2.32,8.08,8.08,0,0,1,2.25,5.86,7.55,7.55,0,0,1-2.44,5.8,8.51,8.51,0,0,1-6,2.26h-1a43.25,43.25,0,0,0-17.51,3.6,46.46,46.46,0,0,0-24.36,24.47,44.57,44.57,0,0,0-3.66,17.95v47.36a8,8,0,0,1-2.26,5.86,7.41,7.41,0,0,1-5.55,2.32,8.4,8.4,0,0,1-5.92-2.32,7.64,7.64,0,0,1-2.5-5.86Z"/><path class="bc07a638-ed46-4185-95b0-b3f0a0e0b1e3" d="M589,75.3a8.2,8.2,0,0,1,8.24-8.3A7.53,7.53,0,0,1,603,69.38a8.28,8.28,0,0,1,2.24,5.92V177.23a7.91,7.91,0,0,1-2.36,5.8,7.64,7.64,0,0,1-5.63,2.38,8,8,0,0,1-5.82-2.38,7.84,7.84,0,0,1-2.42-5.8Z"/><path class="b577d767-f767-4003-ba09-cab2d5afce2b" d="M719.43,148.32a28.81,28.81,0,0,1,3.31-3.8c2.46-2,4.38-1.3,4.67,1.82a56.76,56.76,0,0,1,0,9.22,42.42,42.42,0,0,1-9.75,23.54c-4.31,5.36-10.92,8.41-17.55,10.87a56.7,56.7,0,0,1-25.68,3.29C658,191.6,644.12,184.67,634.09,171c-1.08-1.47-.77-2.78.29-4.27a111.82,111.82,0,0,1,12.25-14.26c1.45-1.44,2.89-2.9,4.33-4.35,4.2-4.21,4.89-4.18,9.4.06a38.7,38.7,0,0,0,15.23,9.12c5.23,1.6,10.5,2.47,14.82-2.28,2-2.13,2.22-3.93-.1-6.3-4.21-4.32-9.23-7.33-14.46-10-9-4.58-18-9.26-25.28-16.27a40.93,40.93,0,0,1-12.33-23c-1.73-10.22.73-19.39,6.84-27.58,6.21-8.34,14.33-14.18,24.64-15.78,11.54-1.79,23.07-1.68,34.14,3.23,4.61,2,8.58,5,12.56,7.89,1.48,1.09,2.16,1,3.72.07,6-3.57,11.83-7.4,19.06-8.74,14.81-2.76,28.47-.94,40.77,8.13,3.55,2.63,7.23,5.16,9.8,9,1.18,1.76,1.6,3.12.2,4.79-5,5.94-9.82,12-16,16.74-1.53,1.17-2.81.29-4-.4-4.41-2.51-8.35-5.78-13-8-6-2.81-11.43-1.91-15.49,2.65-1.72,1.92-1.66,3.8.1,5.65,4.69,4.93,10.73,7.75,16.62,10.84,9.31,4.88,18.94,9.35,26.27,17.23,6.2,6.66,9.23,14.65,9.8,23.76.83,13.39-4.66,23.88-14.36,32.44-5.51,4.86-12.26,7.31-19.41,8.55a63.61,63.61,0,0,1-12.26,1.32c-9.13-.24-18-2-26.17-6.37-3.27-1.76-3.76-3.07-1.5-6a45,45,0,0,0,8.69-17.67c1.18-5.24,1-10.55.92-15.84-.12-8.45.08-6.08,6.66-8,.69-.2,1.8.45,2.06-.53s-.89-1.33-1.67-1.72c-3.39-1.68-7.32-2.51-9.53-6.07a71.67,71.67,0,0,1-7.35-14.77c-.51-1.51,0-1.41,1.06-1.58,3.69-.63,7.35-1.56,11.06-1.94,3.88-.4,7.74-.77,11.58-1.44.68-.12,1.7.43,1.8-.89a1.7,1.7,0,0,0-1.23-1.81c-2.45-.94-4.89-2-7.41-2.73-7.48-2.21-15-4.38-22.5-6.37-5-1.32-7.59-5-9.88-9.12a22.92,22.92,0,0,0-6.13-7.47c-1.16-.86-2.63-2.81-4.39-1.38-1.51,1.23-1.35,3.41-1.16,5.14.46,4.27,2.47,8.12,4.8,11.53a9.91,9.91,0,0,1,1.47,9.34c-2.88,9-5.37,18.19-7.56,27.42-.47,2-1.45,5.23-.44,5.68,1.82.8,3.06-2,4.26-3.34,3.77-4.38,7.13-9.13,10.92-13.5,2.9-3.34,3-3.09,5.56.46,3,4.12,5,8.84,7.83,13.08,1.21,1.83-.15,3.57-.34,5.33-.26,2.42-.78,4.8-1.19,7.2Z"/><path class="e7115b94-c222-4673-9153-5162369ab163" d="M597.86,51.28a32.87,32.87,0,0,0-22.36-22c11.42-3.42,18.87-10.83,22.26-22.12,3.35,11.26,10.9,18.79,22.22,22.16C608.68,32.64,601.28,40,597.86,51.28Z"/><path d="M597.73,11.57a31.87,31.87,0,0,0,17.79,17.76A32.2,32.2,0,0,0,597.86,47a34.4,34.4,0,0,0-18-17.7,32.45,32.45,0,0,0,17.83-17.68m0-11.57c-2.41,16.91-12.32,27.07-30.31,29.42A31.57,31.57,0,0,1,597.7,59.3c2.3-17.62,12.36-27.63,29.51-30C610.1,27,600.07,17,597.78,0Z"/></g></g></svg>