<svg xmlns="http://www.w3.org/2000/svg" viewBox="0 0 290.56 448.1"><defs><style>.a8dbb193-a8d8-4311-b547-1f327d53269c{fill:#313131;}.ea7c3dad-ac4a-4047-a4ee-786453cd1231{fill:#6a6a6a;}.f6e3ddb6-66e9-4f04-9125-75c06c7c3a39{fill:#e20e08;}.af188a4f-9dde-4235-b751-ce867edd3828{fill:#d4d7da;}.fb879e7d-9352-4b4c-ad71-f4d22a3901df{fill:#e2e7eb;}.e15bd40c-6211-41f0-9a08-f14447b15cef{fill:#fbc300;}.f03ce663-93af-4231-8734-442daa8cceb8{fill:#c30606;}.a7d2217e-dbe1-471e-83c8-bd3e2a7b9788{fill:#9fd8f1;}</style></defs><g id="a8a24112-bf17-496f-8f59-11682d4976af" data-name="Capa 2"><g id="a0dbd7ae-e07e-4266-b462-e2cb0f10d860" data-name="Capa 1"><path d="M71.52,119.57C69.12,117.4,69,114.9,70,112a277.66,277.66,0,0,1,44.88-81.09c3-3.72,6.1-7.35,9.15-11,.35-.43.9-.79.47-1.46L126,16.89a.91.91,0,0,0,1-1l1.48-1.48c2.45-1.31,3.91-3.7,6-5.44C137.3,6.29,139.8,3.24,142.9.8,145.78-.95,148,.43,150,2.4a276.13,276.13,0,0,1,40.55,48.83q55.82,86.63,43.06,188.93c-.41,3.37.52,4.5,3.5,5.67,21.37,8.4,36.71,23.24,46.27,44.09,1.69,3.69,1.19,5.24-2.48,8.32-3.42,1.22-5.65.47-7.57-2.69-1.75-2.88-3-6.05-4.73-8.92a75.48,75.48,0,0,0-12.89-15.92,71.05,71.05,0,0,0-20.06-13.08c-3.56-1.55-3.64-1.44-4.4,2.48a277.59,277.59,0,0,1-24.42,70.33c-2.18,4.37-4.49,8.68-7,12.85-1.2,2-1,3.41,1.12,4.62A51.78,51.78,0,0,1,215.17,360c7.11,9.29,9.81,19.66,7.57,31.21-.65,3.36-.45,3.58,3,2.67A69.47,69.47,0,0,0,250.07,382c16-12.11,25.35-28.26,28.26-48.06a48,48,0,0,0,.5-14.27,10.87,10.87,0,0,1,.48-5.86c.87-2.06,2.12-3.65,4.73-3.17,4.72.55,6,1.88,6.31,6.63,3.22,47.37-30.7,86.76-78,90.57-2.47.2-4.72-.09-6.1-2.39s-.64-4.59.8-6.81c6.56-10.12,6.71-20.4-.15-30.34-4.18-6.06-10.19-10.14-17.27-13.21.37,3.89.82,7.63,1.07,11.38,1.15,17.52-2.27,34-11.27,49.21-2.75,4.66-7.29,4.71-10.05.08-1-1.76-2-3.58-3.37-6-1.45,4.08-2.61,7.54-3.89,10.95a182.62,182.62,0,0,1-10.72,22.63c-3.39,6.26-8.61,6.42-12.18.14a166.07,166.07,0,0,1-13.42-30.18c-.32-1-.66-2-1.08-3.17-1.76,1.43-2.26,3.39-3.16,5.06-1.17,2.19-2.56,3.92-5.26,4s-4.17-1.65-5.41-3.78c-8.72-15.05-12.16-31.31-11.08-48.58.24-3.81.73-7.61,1.14-11.85-11.25,5.66-20.48,12.52-22.09,25.89a25.13,25.13,0,0,0,3.51,16.05c.47.81,1,1.57,1.51,2.36,1.28,2,1.67,4,.34,6.2S80.8,408,78.5,407.82A82.87,82.87,0,0,1,32,390c-.44-.35-.83-.85-1.5-.53L29,387.94a7.18,7.18,0,0,0-3.46-3.46L21.13,380a1.61,1.61,0,0,0-1.49-1.49l-2.47-2.47c-.88-3.83-3.87-6.42-5.76-9.65a84.12,84.12,0,0,1,6.45-94.12,81.6,81.6,0,0,1,36.65-26.9c2.28-.84,2.9-1.78,2.56-4.25A280.1,280.1,0,0,1,61.7,140.78c1.07-4.75,2.36-5.94,6.94-6.19,3.1,0,4.29,1.89,4.51,4.67a22.82,22.82,0,0,1-.74,6.58,274.19,274.19,0,0,0-5.68,39.4,286,286,0,0,0,.54,43.61,266,266,0,0,0,13.67,63.39,261,261,0,0,0,22.44,48.06,4.7,4.7,0,0,0,4.57,2.52c5-.08,10,0,15-.05,19.82.1,39.64,0,59.46.07a5.21,5.21,0,0,0,5.05-2.93,269.49,269.49,0,0,0,33.11-90.43,271.29,271.29,0,0,0,4-45.2,260.83,260.83,0,0,0-3.66-44.88,274.33,274.33,0,0,0-9.06-37.35c-2.65-8.32-5.91-16.44-9.21-24.54-.95-2.35-2.42-2.4-4.44-2a235.78,235.78,0,0,1-26.57,4.23,264.12,264.12,0,0,1-57.19-.52c-7.2-.57-14.22-2.24-21.33-3.37-4.2-.68-4.14-.68-5.84,3.35-2.49,5.88-4.48,12-7.09,17.79C78.34,121.15,75.31,122,71.52,119.57Z"/><path class="a8dbb193-a8d8-4311-b547-1f327d53269c" d="M25.58,384.48A3.93,3.93,0,0,1,29,387.94Z"/><path class="ea7c3dad-ac4a-4047-a4ee-786453cd1231" d="M19.64,378.54c1.3-.3,1.57.41,1.49,1.49Z"/><path class="f6e3ddb6-66e9-4f04-9125-75c06c7c3a39" d="M284,310.62c-4.33,1.32-4.57,4.68-4.3,8.4A71,71,0,0,1,268,364.17c-10.78,16.39-25.88,26.81-45,31.33-.66.16-1.35.19-2.4.34,4-12.93,1.89-24.59-5.95-35.22-1.76-1.77-1.21-3.42,0-5.26a254.28,254.28,0,0,0,33.54-68c1.6-5.1,3.22-10.2,4.39-15.43.37-1.67.82-3.74,3.4-2.19a69,69,0,0,1,17.31,23.8c1.52,3.41,3.77,5.19,7.58,4.66A60.07,60.07,0,0,1,284,310.62Z"/><path class="af188a4f-9dde-4235-b751-ce867edd3828" d="M71.52,119.57c4.82,1.53,6.67.63,8.55-4.13,2.48-6.26,5-12.49,7.41-18.79.74-2,1.54-2.6,3.78-2.16C99,96,106.81,97.26,114.59,98.61c.79,3.21-.68,6.14-1.17,9.17-1.24,7.67-2.48,15.33-3.53,23a11.71,11.71,0,0,1-1,4c-2.57,3.6-6.09,6.34-8.69,10-14,19.57-13.68,46.77,1,65.77,1.28,1.65,2.56,3.31,3.71,5,1,4.47.61,9,.8,13.55a522.31,522.31,0,0,0,11,87.2q2.59,12.12,5.89,24.08c.27,1,.77,2,.45,3.06-5.69.06-11.38.07-17.07.22-1.63,0-2.1-.9-2.79-2.06a269.33,269.33,0,0,1-32-194.29c.37-1.71.67-3.43,1.07-5.13.84-3.54-.14-6.18-3.64-7.64,1-3.8,2.07-7.62,3.19-11.42C72.21,121.89,72.51,120.7,71.52,119.57Z"/><path class="fb879e7d-9352-4b4c-ad71-f4d22a3901df" d="M123.07,343.49c-2.93-6.51-4-13.54-5.66-20.39a478.69,478.69,0,0,1-10.29-61.66c-1.14-10.47-1.93-21-2.2-31.55-.12-4.51-.68-9-.25-13.54,3.28.66,5.16,3.43,7.58,5.29,18.89,14.5,47.15,14.26,66.26-.12a55.73,55.73,0,0,0,19.72-60.88c-6.69-22-26.92-37.41-48.66-38.74-13.71-.84-26.09,2.46-37.17,10.59-1.1.81-2.22,1.77-3.77,1.58,1.59-11.89,3.13-23.78,6-35.46,19.3,1.82,38.6,2.27,57.9.22A220.06,220.06,0,0,0,199,94.55c2.14-.5,3.2-.2,4.17,2q35.44,83.06,14.55,170.88a264.1,264.1,0,0,1-30.36,74.22c-.7,1.19-1.23,2-2.83,2Q153.82,343.54,123.07,343.49Z"/><path class="f6e3ddb6-66e9-4f04-9125-75c06c7c3a39" d="M76,360.63c-7.75,11.12-8.69,16.36-6.2,35.51C43.2,389.77,24.51,374.5,15.07,349c-10.26-27.74-2.49-59.23,18.52-78.23,3-2.2,3.64-2,4.51,1.56,7.39,30.05,20.35,57.57,37.81,83C77.18,357.2,77.72,358.86,76,360.63Z"/><path class="f6e3ddb6-66e9-4f04-9125-75c06c7c3a39" d="M154.39,22.39c15.74,16.4,28.56,34.9,39.28,54.88,3.7,6.9,3.63,7-4.08,8.37a255.87,255.87,0,0,1-70.66,2.61,19.68,19.68,0,0,1-2.37-.52c-.71-1.38-.2-2.75.11-4.09a397.83,397.83,0,0,1,18.41-58.18c1.87-4.67,5.58-7.9,9-11.33,1-1,1.78-.69,2.6.21C149.21,17.07,152.16,19.39,154.39,22.39Z"/><path class="e15bd40c-6211-41f0-9a08-f14447b15cef" d="M174.24,402.21c-1.73-3.19-3.29-6-4.77-8.83-1.23-2.36-2.93-4-5.76-3.69-3,.29-4.25,2.39-4.91,5.11-2.93,12.25-6.71,24.2-12.36,35.51-.25.5-.55,1-1.06,1.89a72.59,72.59,0,0,1-6.6-14.31,177.71,177.71,0,0,1-7-23c-.6-2.71-1.81-4.85-4.86-5.16s-4.68,1.46-5.94,3.95c-1.4,2.76-3,5.44-4.71,8.63a69.83,69.83,0,0,1-5.9-25.06,97.5,97.5,0,0,1,1.37-20.89c.25-1.66.82-2.06,2.4-2.05q31.12.06,62.25,0c1.23,0,2.08,0,2.37,1.67,2.61,15.22,2.16,30.15-3.71,44.65C174.92,401,174.68,401.37,174.24,402.21Z"/><path class="f03ce663-93af-4231-8734-442daa8cceb8" d="M76,360.63a4.29,4.29,0,0,0-.49-4.49,247,247,0,0,1-25.09-44.73,214.92,214.92,0,0,1-13.18-39.54c-.68-3-2.12-1.69-3.6-1.1A71.59,71.59,0,0,1,57.2,255.6c2.72-1.12,2.33,1,2.56,2.2a272,272,0,0,0,16.45,54.05A229.13,229.13,0,0,0,91.79,343c1.64,2.66,1.52,4.08-1.47,5.6C84.67,351.52,80.11,355.87,76,360.63Z"/><path class="f03ce663-93af-4231-8734-442daa8cceb8" d="M256,269.78c-1.65-.41-2.2.49-2.54,1.93-6.14,26.39-16.94,50.81-31.2,73.76-2.25,3.63-4.62,7.2-7.14,10.65a4.27,4.27,0,0,0-.5,4.5,54.28,54.28,0,0,0-15.86-12.88c-2-1-1.24-2.31-.42-3.73a276.11,276.11,0,0,0,13.39-26.07,274.73,274.73,0,0,0,18.64-58.06c1-5,1.07-5.1,5.88-3A69.1,69.1,0,0,1,256,269.78Z"/><path class="f03ce663-93af-4231-8734-442daa8cceb8" d="M154.39,22.39c-2.41-2.36-4.88-4.66-7.21-7.11-1.34-1.41-2.22-1.27-3.74-.06-5.31,4.21-7.5,10.17-9.74,16.17a403.23,403.23,0,0,0-16.7,55,12.76,12.76,0,0,1-.44,1.32c-7.22-.36-14.26-1.9-21.34-3.18-1.85-.33-1.59-1-.92-2.33a267.49,267.49,0,0,1,33-49.86c5.1-6,10.29-12,15.78-17.68,1.66-1.73,2.81-2,4.4,0C149.64,17.34,152.7,19.25,154.39,22.39Z"/><path d="M108.63,134.07c13.67-10.82,29-15.27,46.4-12.49,40.81,6.53,60.68,56.43,35.46,89.15C171.75,235,140,240.57,114.15,224a70.8,70.8,0,0,1-9.48-7.69c-12.48-13.89-17.87-30-14.92-48.58a54.3,54.3,0,0,1,16.19-31C106.85,135.91,107.73,135,108.63,134.07Z"/><path class="f6e3ddb6-66e9-4f04-9125-75c06c7c3a39" d="M113,144.71a45.79,45.79,0,1,1,0,64.81A45.83,45.83,0,0,1,113,144.71Z"/><path d="M173.4,149.21a39.61,39.61,0,1,1-55.88-.33A39.44,39.44,0,0,1,173.4,149.21Z"/><path class="a7d2217e-dbe1-471e-83c8-bd3e2a7b9788" d="M165.81,156.58c11.28,11.28,11.25,30.1-.07,41.19a29,29,0,1,1,.07-41.19Z"/></g></g></svg>