<svg xmlns="http://www.w3.org/2000/svg" viewBox="0 0 408.63 408.63"><defs><style>.b30f79a7-8a50-498f-a3a6-20e18c09844b{fill:#313131;}.ba938cf9-3922-42ab-ad25-3607f69858a8{fill:#6a6a6a;}.bb2e2a26-91bd-49be-8a7c-dc95f65797a2{fill:#e20e08;}.a6a2ef89-46be-43ba-ad8d-a24ce4b8ea87{fill:#d4d7da;}.efd58a87-69e6-4773-99fb-709e180c4789{fill:#e2e7eb;}.e0a09bc8-b0f8-4f48-874e-267e5bf40a6c{fill:#fbc300;}.b84d3d63-a0bd-4344-9e3b-bb7a0237f359{fill:#c30606;}.bb11957c-8a83-4a68-b428-f0bd199eec2d{fill:#9fd8f1;}</style></defs><g id="a894c5c3-64d0-4583-ac20-bbf0e705134d" data-name="Capa 2"><g id="a44a8ff0-fdea-4a85-a0ea-29195c3a1eaa" data-name="Capa 1"><path d="M250.75,38.88c-.19-3.69,1.72-5.83,4.94-7.36A316.7,316.7,0,0,1,357.3,2.32c5.42-.6,10.85-1,16.28-1.52.63-.06,1.35.1,1.55-.8h2.39a1,1,0,0,0,1.6,0h2.39c3,.91,6.13.17,9.19.41,4.48.14,9-.29,13.43.23,3.73.92,4.39,3.8,4.45,7a315,315,0,0,1-6.68,72.1Q377,194.67,284.24,266.91c-3.05,2.38-3.21,4-1.76,7.39,10.47,24,10.87,48.36,1.76,72.89-1.61,4.34-3.26,5.19-8.7,4.72-3.75-1.79-5-4.19-3.94-8.29.91-3.73,2.48-7.26,3.38-11a86.17,86.17,0,0,0,2.44-23.23,81.1,81.1,0,0,0-5.63-26.73c-1.62-4.12-1.77-4.1-5.55-1.56-23.73,16-49.38,28-76.43,37-5.28,1.77-10.62,3.38-16.05,4.68-2.54.61-3.53,2-2.82,4.62a59.16,59.16,0,0,1,1.72,21.28c-1.76,13.22-7.95,23.77-19.07,31.28-3.24,2.19-3.26,2.52.27,4.58a79.22,79.22,0,0,0,29.24,10c22.69,3.14,43.24-2.35,61.57-16,4.34-3.23,8.61-6.66,11.9-11.11a12.35,12.35,0,0,1,5.12-4.34c2.37-1,4.66-1.24,6.37,1.26,3.37,4.25,3.31,6.34-.26,10.43-35.61,40.81-94.74,45.22-136,10.17-2.15-1.83-3.72-3.89-3-6.85.78-3.12,3.19-4.22,6.14-4.85,13.46-2.87,21.87-11.05,24.36-24.6,1.51-8.26-.05-16.39-3.28-24.58-2.84,3.44-5.49,6.81-8.32,10-13.2,15.06-29.26,25.61-48.78,30.61-6,1.54-9.68-2.08-8.17-8,.57-2.28,1.26-4.52,2.11-7.56-4.46,2.13-8.19,4-12,5.7a207.48,207.48,0,0,1-26.91,9.6c-7.79,2.33-12.12-1.76-9.94-9.7a189.28,189.28,0,0,1,13.52-35.17c.53-1.06,1-2.12,1.69-3.43-2.57-.27-4.57.91-6.64,1.53-2.71.82-5.23,1.09-7.43-1s-2-4.7-1.32-7.4c5.1-19.19,15.44-35.08,30.25-48.14,3.27-2.88,6.73-5.55,10.49-8.64C71,248,58,246.06,46,255.55a28.7,28.7,0,0,0-10.11,15.78c-.27,1-.46,2.08-.68,3.12-.58,2.65-1.9,4.58-4.73,5.27s-4.85-.71-6.57-2.7C11,262,3.07,244.82.78,225.12c-.07-.64,0-1.36-.78-1.64v-2.39a8.14,8.14,0,0,0,0-5.59v-7.18a1.83,1.83,0,0,0,0-2.4v-4c2.38-3.8,2.06-8.29,3.15-12.43a96,96,0,0,1,81.11-70.72,93,93,0,0,1,51.26,7.87c2.52,1.16,3.78.9,5.5-1.37,23.47-30.95,51.91-56.47,84.7-77.22,4.69-3,6.69-2.89,10.58.6,2.49,2.51,1.94,5-.13,7.41a25.59,25.59,0,0,1-5.9,4.71A310.85,310.85,0,0,0,193.91,88a326.37,326.37,0,0,0-34.74,35.61,302.86,302.86,0,0,0-40.1,62.16,297.92,297.92,0,0,0-20.68,56.87,5.37,5.37,0,0,0,1.66,5.72c4.1,4,8.09,8.08,12.17,12.08,15.9,16.07,32,32,47.9,48a6,6,0,0,0,6.44,1.71,307.33,307.33,0,0,0,99.65-46.23,310.35,310.35,0,0,0,39.68-33.25,297.55,297.55,0,0,0,33.25-39.16A312.85,312.85,0,0,0,362,154.09c4.57-8.86,8.5-18,12.37-27.23,1.12-2.67,0-3.9-2-5.17a264,264,0,0,1-24.84-18,300.79,300.79,0,0,1-45.71-46.55c-5.35-6.26-9.67-13.27-14.49-19.92-2.85-3.93-2.79-3.89-7.42-2-6.75,2.74-13.26,6-20.07,8.63C255,45.65,251.87,43.86,250.75,38.88Z"/><path class="b30f79a7-8a50-498f-a3a6-20e18c09844b" d="M0,215.5c1.2,1.86,1.4,3.72,0,5.59Z"/><path class="ba938cf9-3922-42ab-ad25-3607f69858a8" d="M0,205.92c1.29.8.93,1.6,0,2.4Z"/><path class="bb2e2a26-91bd-49be-8a7c-dc95f65797a2" d="M268.06,364.41c-4.55-2.43-7.45.08-10.25,3.3a81,81,0,0,1-45.88,27c-21.93,4.52-42.5.74-61.57-11-.66-.4-1.25-.93-2.21-1.66,13.68-7.18,21.36-18.31,23.61-33.2,0-2.85,1.78-3.74,4.28-4.21,28.62-5.32,56-14.26,81.88-27.76,5.4-2.82,10.82-5.63,16-8.91,1.64-1,3.67-2.35,4.51,1A78.79,78.79,0,0,1,273.18,342c-1.52,4-1.14,7.23,2.36,9.88A68.48,68.48,0,0,1,268.06,364.41Z"/><path class="a6a2ef89-46be-43ba-ad8d-a24ce4b8ea87" d="M250.75,38.88c2.65,5.11,4.87,5.88,10.22,3.56,7-3.06,14.14-6,21.14-9.18,2.17-1,3.34-.86,4.79,1.3,5,7.49,10.31,14.78,15.5,22.15-1.95,3.22-5.51,4.39-8.35,6.45-7.18,5.19-14.36,10.36-21.41,15.71a13.42,13.42,0,0,1-4.05,2.45c-5,.82-10,.19-15,1-27.1,4.47-48.76,26.69-52.25,53.86-.3,2.36-.6,4.73-1.08,7.06-2.82,4.39-6.8,7.78-10.28,11.57a594.57,594.57,0,0,0-61.44,79.24q-7.7,11.87-14.68,24.17c-.58,1-1,2.21-2.1,2.84-4.64-4.55-9.24-9.13-13.95-13.6-1.35-1.28-1-2.42-.59-3.91A307.23,307.23,0,0,1,228.08,61c1.67-1.07,3.31-2.22,5-3.26,3.53-2.18,4.87-5.11,3.22-9.11,3.93-2.22,7.83-4.47,11.79-6.63C249.43,41.3,250.63,40.58,250.75,38.88Z"/><path class="efd58a87-69e6-4773-99fb-709e180c4789" d="M111.71,261.08c2.88-7.62,7.7-14.14,11.88-21,12.38-20.35,26.52-39.5,41.43-58,7.53-9.36,15.38-18.49,23.68-27.22,3.54-3.74,6.72-7.83,10.72-11.12,2.11,3.18,1.39,6.93,1.85,10.38,3.54,26.93,26.53,49.53,53.55,53.35a63.56,63.56,0,0,0,65-33.2c12.35-23.13,8.47-51.89-8-70.5-10.38-11.74-23-19.06-38.53-21.44-1.54-.24-3.2-.37-4.31-1.76,10.87-8.32,21.71-16.67,33.42-23.8,14.1,17,29.3,33,46.53,46.88a252.55,252.55,0,0,0,24.84,17.94c2.13,1.33,2.75,2.43,1.71,5q-38.4,95.59-126.1,149.57A301.44,301.44,0,0,1,165,311.51c-1.52.39-2.61.63-3.89-.67Q136.47,285.91,111.71,261.08Z"/><path class="bb2e2a26-91bd-49be-8a7c-dc95f65797a2" d="M59.88,236.89c-15.23,2.72-20.22,6.18-33.65,23.64C10,234,7.19,206.59,20.15,178.4c14.09-30.66,45.76-49.78,78-48.17,4.18.65,4.54,1.33,2.38,4.9-18.29,30.21-30,62.86-36.48,97.48C63.62,235.12,62.73,236.89,59.88,236.89Z"/><path class="bb2e2a26-91bd-49be-8a7c-dc95f65797a2" d="M396,27.33c-.54,25.93-5.11,51.19-12.58,76-2.58,8.55-2.69,8.54-10,3.47-22.36-15.44-41.82-34-59.1-54.9a21,21,0,0,1-1.5-2.33c.54-1.68,2.06-2.38,3.39-3.21a452.67,452.67,0,0,1,61.78-32.08c5.27-2.26,10.87-1.87,16.42-1.86,1.67,0,2,.87,1.92,2.26C396.09,18.86,396.6,23.11,396,27.33Z"/><path class="e0a09bc8-b0f8-4f48-874e-267e5bf40a6c" d="M105.62,349.72c1.18-4,2.17-7.49,3.27-11,.91-2.89.84-5.55-1.66-7.62-2.7-2.22-5.37-1.5-8.09.17C86.9,338.8,74.2,345.4,60.53,350c-.61.2-1.24.35-2.39.67a83.24,83.24,0,0,1,6.22-16.87,204.43,204.43,0,0,1,13-24.2c1.71-2.68,2.44-5.38.23-8.09s-5-2.59-8-1.61c-3.36,1.1-6.78,2-10.76,3.17a79.64,79.64,0,0,1,15.46-25,110.67,110.67,0,0,1,17.94-15.75c1.55-1.14,2.33-1,3.61.28q25.05,25.17,50.19,50.23c1,1,1.69,1.67.57,3.26-10.17,14.38-22.59,26.06-39,33C107.13,349.29,106.65,349.4,105.62,349.72Z"/><path class="b84d3d63-a0bd-4344-9e3b-bb7a0237f359" d="M59.88,236.89a4.87,4.87,0,0,0,3.21-4,281.78,281.78,0,0,1,15.85-56.31A244.44,244.44,0,0,1,100.2,134c1.89-3-.35-3.07-2-3.8A81.88,81.88,0,0,1,129.47,137c3.1,1.29,1.09,2.66.29,3.85a310,310,0,0,0-30.33,56.86,261.36,261.36,0,0,0-12.59,37.73C86,239,84.77,240,81.13,238.81,74.25,236.58,67.07,236.41,59.88,236.89Z"/><path class="b84d3d63-a0bd-4344-9e3b-bb7a0237f359" d="M278.42,308.87c-1-1.67-2.18-1.38-3.61-.49-26.24,16.33-54.65,27.32-84.66,34.33-4.75,1.1-9.54,2.08-14.36,2.84a4.83,4.83,0,0,0-4,3.22,61.87,61.87,0,0,0-2.41-23.19c-.78-2.46.87-2.87,2.68-3.35A316.7,316.7,0,0,0,203.85,312a313.58,313.58,0,0,0,61.88-31.8c4.86-3.23,5-3.25,7.16,2.32A79,79,0,0,1,278.42,308.87Z"/><path class="b84d3d63-a0bd-4344-9e3b-bb7a0237f359" d="M396,27.33c0-3.85-.18-7.7-.08-11.55.05-2.23-.77-2.82-3-3.07-7.67-.89-14.25,2.16-20.9,5.19C352.09,27,332.64,37,314.18,48.81a14.46,14.46,0,0,1-1.42.71c-5.53-6.11-10-13-14.65-19.78-1.22-1.76-.44-2.12,1.14-2.63a305.36,305.36,0,0,1,66.83-13.6c9-.76,18-1.36,27-1.54,2.74-.05,3.9.65,3.58,3.52C396.22,19.42,397.15,23.44,396,27.33Z"/><path d="M269,80.51c19.76,2.29,35.74,11.1,47.51,27.34,27.65,38.19,3.42,94.47-43.31,100.51-34.71,4.49-64.82-16.67-72.32-50.83a80.64,80.64,0,0,1-1.44-13.85c1.13-21.28,9.79-38.62,27.15-51.23a62,62,0,0,1,38-11.92C266.07,80.55,267.53,80.51,269,80.51Z"/><path class="bb2e2a26-91bd-49be-8a7c-dc95f65797a2" d="M263.9,92.59a52.24,52.24,0,1,1-52.3,52.25A52.28,52.28,0,0,1,263.9,92.59Z"/><path d="M309,145a45.19,45.19,0,1,1-44.81-45.34A45,45,0,0,1,309,145Z"/><path class="bb11957c-8a83-4a68-b428-f0bd199eec2d" d="M296.94,144.78c0,18.2-15.19,33.35-33.28,33.17a33.12,33.12,0,1,1,33.28-33.17Z"/></g></g></svg>