<?xml version="1.0" encoding="utf-8"?>
<!-- Generator: Adobe Illustrator 25.2.1, SVG Export Plug-In . SVG Version: 6.00 Build 0)  -->
<svg version="1.1" id="Capa_1" xmlns="http://www.w3.org/2000/svg" xmlns:xlink="http://www.w3.org/1999/xlink" x="0px" y="0px"
	 viewBox="0 0 176.2 151.7" style="enable-background:new 0 0 176.2 151.7;" xml:space="preserve">
<style type="text/css">
	.st0{fill:#F50537;}
</style>
<g id="Capa_2_1_">
	<g id="Capa_1-2">
		<path class="st0" d="M48.7,151.7c-12.9-0.3-25.4-4.5-35.8-12.2c-4.4-3.4-8.4-7.3-11.7-11.8c-1.6-2.1-1.7-3.4,0-5.5
			c3.5-4.4,7.1-8.7,10.8-12.9c2.7-3.1,5.8-5.9,8.7-8.8c0.3-0.3,0.7-0.6,1.1-0.9c1.8-1.4,3-1.4,4.8,0c1.5,1.2,2.9,2.5,4.3,3.8
			c5.7,5.1,12.7,8.6,20.2,9.9c4.5,0.8,8.4-0.3,11.5-3.8c2.1-2.4,2.1-4.3-0.1-6.6c-4.3-4.3-9.3-7.8-14.8-10.5
			c-7.2-3.7-14.4-7.4-21.1-12.1c-7.2-5.1-13.3-11.1-17.2-19.1C1.2,44.7,4.1,26.7,17,13.5C22.8,7.6,29.5,3.2,37.8,1.6
			C50.6-0.8,63.4-0.9,75.7,4c4.4,1.9,8.5,4.3,12.3,7.1c1,0.7,2,1.4,3,2.2c1.1,1,2.7,1.1,3.9,0.2c1.9-1.2,3.8-2.2,5.7-3.4
			c6.6-4.1,14.1-6.6,21.8-7.3c8.1-0.7,16.1-0.3,23.9,2.3c9,3.1,16.6,8.4,23.3,15.1c1,1.1,1.8,2.3,2.5,3.6c0.7,1.1,0.6,2.6-0.3,3.6
			c-5.2,6.4-10.4,12.8-16.9,18c-2.1,1.7-2.8,1.8-5.2,0.4c-3.5-2.1-6.8-4.4-10.3-6.6c-3.1-1.9-6.4-3.7-10.2-3.9
			c-4.5-0.4-8.9,1.7-11.5,5.4c-1.3,1.7-1.1,3.1,0.7,5.3c2.2,2.5,4.9,4.6,7.8,6.2c5.6,3.3,11.4,6.2,17.2,9.3
			c6.6,3.5,13.1,7.2,18.7,12.1c8.5,7.3,13.5,17.7,14,28.9c1,17.8-7.1,30.7-21.6,40c-5.2,3.4-11.2,4.7-17.3,5.6
			c-3.4,0.6-6.8,1-10.2,1.1c-6.8,0.2-13.7-0.8-20.2-2.9c-3.4-1.1-6.6-2.7-9.9-4.1c-0.1-0.1-0.3-0.1-0.4-0.2c-3-1.7-3.2-3.1-1.3-6
			s3.9-5.6,5.6-8.6c3.6-6.7,5.5-14.3,5.3-21.9c0-3.6-0.1-7.2,0-10.8c0-2.6,0.5-3.1,3.1-3.5c1.9-0.3,3.8-0.6,5.6-0.9
			c0.5,0,0.9-0.4,0.8-0.9c0-0.2-0.1-0.4-0.2-0.6c-0.3-0.3-0.7-0.5-1.1-0.7c-2.1-0.9-4.2-1.8-6.2-2.8c-2.2-1-3.9-2.6-5.1-4.7
			c-3-4.7-5.5-9.8-7.5-15c-0.1-0.2-0.2-0.5-0.2-0.7c-0.3-0.9-0.1-1.4,1-1.6c6.7-1.3,13.4-2.4,20.2-3c1.9-0.2,3.9-0.5,5.8-0.7
			c0.6-0.1,1-0.6,1-1.2c0-0.2-0.1-0.4-0.3-0.6c-0.4-0.6-1-1-1.6-1.3c-7.1-3-14.6-4.8-22-7c-3.3-1-6.6-1.9-9.9-2.7
			c-3.7-0.9-6.9-3.2-8.9-6.4c-1.1-1.6-2.1-3.3-3-5c-2-3.2-4.5-6-7.6-8.2c-1.8-1.3-3.8-0.7-4.2,1.5c-0.3,1.8-0.3,3.6,0,5.4
			c0.6,4.1,2.6,7.6,4.9,10.9s2.7,6.9,1.6,10.9c-3.1,10.8-5.9,21.7-8.9,32.5c-0.2,0.7-0.2,1.4-0.2,2.1c0,1.1,0.8,1.6,1.7,1.1
			c0.7-0.4,1.4-1,1.9-1.7c4.4-5.5,8.8-11,13.3-16.5c0.5-0.7,1.1-1.3,1.8-1.9c1.2-1.1,1.9-1.1,2.9,0.2c1.3,1.6,2.4,3.3,3.5,5
			c2.3,3.8,4.6,7.7,6.7,11.6c0.4,1,0.4,2,0.2,3c-0.5,3.3-1.2,6.6-1.8,9.9c0,0.3,0.1,0.7,0.4,0.9c0.2,0.1,0.7-0.1,0.9-0.3
			c1-1.1,1.8-2.2,2.8-3.2s2.2-2,3.8-1.4s1.6,2.2,1.7,3.6c0.6,7.5,0,14.9-2.9,22c-2.7,6.7-6.3,12.8-12,17.5
			c-4.4,3.6-9.5,5.7-14.7,7.7C65.4,150.6,57.1,151.8,48.7,151.7z"/>
	</g>
</g>
</svg>
