<?xml version="1.0" encoding="UTF-8"?>
<svg id="Capa_2" data-name="Capa 2" xmlns="http://www.w3.org/2000/svg" viewBox="0 0 477.26 161.16">
  <defs>
    <style>
      .cls-1 {
        font-family: CircularStd-Medium, 'Circular Std';
        font-size: 32.93px;
        font-weight: 500;
      }

      .cls-2 {
        letter-spacing: .28em;
      }

      .cls-3 {
        fill: #f50537;
      }

      .cls-3, .cls-4 {
        stroke-width: 0px;
      }

      .cls-5 {
        letter-spacing: .28em;
      }

      .cls-6 {
        letter-spacing: .28em;
      }

      .cls-7 {
        letter-spacing: .25em;
      }
    </style>
  </defs>
  <g id="Capa_1-2" data-name="Capa 1">
    <g>
      <g>
        <path class="cls-3" d="m460.18,49.77c2.9-3.09,2.44-8.02-.97-10.54-.02-.02-.04-.03-.06-.05-7.39-5.46-15.61-6.55-24.51-4.89-4.35.81-7.84,3.11-11.46,5.26-.94.55-1.34.61-2.23-.04-2.39-1.76-4.78-3.52-7.55-4.74-6.66-2.95-13.59-3.02-20.53-1.94-6.2.96-11.08,4.47-14.81,9.49-3.67,4.92-5.15,10.44-4.11,16.58.93,5.47,3.51,10.12,7.41,13.86,4.39,4.21,9.8,7.02,15.2,9.78,3.15,1.61,6.17,3.42,8.7,6.01,1.4,1.43,1.23,2.51.06,3.79-2.6,2.85-5.77,2.33-8.91,1.37-2.46-.75-4.69-1.93-6.73-3.44-2.39-1.77-5.42-2.53-8.31-1.84-.47.11-.94.25-1.42.42-7.95,2.88-9.56,13.46-3.09,18.91,5.26,4.44,11.65,6.85,18.87,7.58,5.23.53,10.42-.11,15.44-1.98,3.98-1.48,7.96-3.31,10.55-6.53,3.22-4.01,5.48-8.8,5.87-14.15.13-1.84.15-3.71-.01-5.54-.17-1.88-1.33-2.31-2.8-1.1-.76.63-1.32,1.5-1.97,2.26l-.6-.28c.25-1.44.56-2.88.72-4.33.11-1.06.93-2.1.2-3.21-1.69-2.55-2.89-5.38-4.7-7.87-1.56-2.13-1.6-2.28-3.34-.27-2.28,2.63-4.3,5.48-6.57,8.12-.72.84-1.47,2.49-2.56,2-.61-.27-.01-2.22.27-3.41,1.31-5.55,2.81-11.05,4.54-16.48.64-2.02.4-3.75-.88-5.62-1.4-2.05-2.61-4.36-2.89-6.93-.11-1.05-.21-2.35.7-3.09,1.05-.85,1.92.29,2.62.81,1.49,1.12,2.68,2.61,3.56,4.25,1.41,2.61,2.99,4.92,6.08,5.74,4.53,1.2,9.04,2.51,13.53,3.83,1.51.45,2.98,1.08,4.46,1.64.47.18.78.53.74,1.09-.06.8-.68.46-1.09.54-1.61.3-3.18.79-4.82.76-2.98-.05-5.86.77-8.79,1.27-.62.1-.94.05-.64.95,1.07,3.17,2.67,6.06,4.42,8.88,1.33,2.14,3.69,2.64,5.73,3.65.47.23,1.18.36,1,1.04-.15.59-.82.19-1.24.32-3.96,1.17-4.08-.26-4,4.82.05,3.18.16,6.38-.55,9.53-.89,3.93-2.73,7.37-5.16,10.55-.94,1.23-.66,2.88.69,3.62,4.96,2.7,10.34,3.76,15.88,3.9,2.45.06,4.94-.37,7.37-.79,4.29-.74,8.36-2.22,11.67-5.14,5.83-5.14,9.13-11.45,8.63-19.5-.34-5.48-2.17-10.28-5.89-14.28-4.41-4.74-10.2-7.43-15.8-10.36-3.54-1.86-7.17-3.55-9.99-6.52-1.06-1.11-1.09-2.24-.06-3.4,2.44-2.74,5.73-3.28,9.32-1.59.03.01.06.03.08.04,4.95,2.36,10.82,1.43,14.57-2.56l.2-.21Z"/>
        <g>
          <path class="cls-4" d="m0,51.09v-.67c0-5,.9-9.83,2.7-14.51,1.8-4.67,4.29-8.66,7.46-11.96,3.17-3.3,6.92-5.91,11.25-7.83,4.32-1.92,9.01-2.89,14.06-2.89s9.71.96,14.13,2.89c4.42,1.92,8.29,4.54,11.58,7.83s5.91,7.29,7.83,11.96c1.92,4.67,2.89,9.51,2.89,14.51,0,3.35-.44,6.59-1.31,9.71-.88,3.12-2.1,6.04-3.67,8.73-1.57,2.7-3.47,5.16-5.7,7.38-2.22,2.23-4.69,4.14-7.39,5.74-2.7,1.6-5.6,2.84-8.7,3.71-3.1.88-6.32,1.31-9.67,1.31-4.5,0-8.54-.9-12.11-2.7-3.57-1.8-6.79-4.07-9.63-6.82l-.3,27.82c-.05,1.95-.67,3.59-1.87,4.91-1.2,1.33-2.77,1.99-4.72,1.99s-3.51-.66-4.84-1.99c-1.33-1.32-1.99-2.96-1.99-4.91v-54.21Zm35.91,22.27c3.15,0,6.14-.61,8.96-1.84,2.82-1.22,5.29-2.89,7.38-4.99,2.1-2.1,3.76-4.55,4.99-7.35,1.22-2.8,1.84-5.8,1.84-9s-.61-6.16-1.84-8.88c-1.23-2.72-2.89-5.21-4.99-7.46-2.1-2.25-4.56-3.94-7.38-5.06-2.82-1.12-5.81-1.69-8.96-1.69s-6.1.6-8.85,1.8c-2.75,1.2-5.15,2.95-7.2,5.25-2.05,2.3-3.67,4.82-4.87,7.57-1.2,2.75-1.8,5.7-1.8,8.85s.6,6.11,1.8,8.88c1.2,2.77,2.82,5.19,4.87,7.24,2.05,2.05,4.45,3.67,7.2,4.87,2.75,1.2,5.7,1.8,8.85,1.8Z"/>
          <path class="cls-4" d="m78.65,76.35c0-5.05.96-9.8,2.89-14.25,1.92-4.45,4.55-8.33,7.87-11.66,3.32-3.32,7.2-5.95,11.62-7.87,4.42-1.92,9.16-2.89,14.21-2.89s9.87.96,14.32,2.89c4.45,1.92,8.32,4.55,11.62,7.87,3.3,3.32,5.9,7.21,7.8,11.66,1.9,4.45,2.85,9.2,2.85,14.25s-.95,9.8-2.85,14.25c-1.9,4.45-4.5,8.32-7.8,11.62-3.3,3.3-7.17,5.91-11.62,7.83-4.45,1.92-9.22,2.89-14.32,2.89s-9.78-.96-14.21-2.89c-4.42-1.92-8.3-4.54-11.62-7.83-3.32-3.3-5.95-7.17-7.87-11.62-1.92-4.45-2.89-9.2-2.89-14.25Zm13.27,0c0,3.19.61,6.19,1.84,9.01,1.22,2.82,2.89,5.28,4.99,7.4,2.1,2.12,4.56,3.79,7.39,5.01,2.82,1.22,5.86,1.83,9.11,1.83s6.36-.61,9.18-1.83c2.82-1.22,5.29-2.89,7.39-5.01,2.1-2.12,3.75-4.58,4.95-7.4,1.2-2.81,1.8-5.82,1.8-9.01s-.6-6.19-1.8-9.01c-1.2-2.81-2.85-5.27-4.95-7.36-2.1-2.09-4.56-3.75-7.39-4.97-2.82-1.22-5.89-1.83-9.18-1.83s-6.29.61-9.11,1.83c-2.82,1.22-5.29,2.88-7.39,4.97-2.1,2.09-3.76,4.55-4.99,7.36-1.23,2.82-1.84,5.82-1.84,9.01Z"/>
          <path class="cls-4" d="m164.27,20.42c0-1.9.62-3.49,1.87-4.76,1.25-1.27,2.77-1.91,4.57-1.91.9,0,1.76.16,2.59.49s1.55.79,2.17,1.39c.62.6,1.12,1.31,1.5,2.14.38.83.56,1.71.56,2.66v66.58c0,3.9,1.04,6.89,3.11,8.96,2.07,2.07,4.94,3.11,8.58,3.11,1.9,0,3.46.64,4.69,1.91,1.22,1.27,1.84,2.81,1.84,4.61,0,1.9-.6,3.46-1.8,4.69-1.2,1.23-2.75,1.84-4.65,1.84-3.55,0-6.85-.6-9.9-1.8-3.05-1.2-5.7-2.91-7.95-5.14-2.25-2.22-4.01-4.87-5.29-7.95s-1.91-6.49-1.91-10.23V20.42Z"/>
          <path class="cls-4" d="m237.3,112.94c-5.05,0-9.77-.96-14.17-2.89-4.4-1.93-8.24-4.54-11.51-7.84-3.27-3.3-5.86-7.18-7.76-11.63-1.9-4.45-2.85-9.21-2.85-14.26s.95-9.81,2.85-14.26c1.9-4.45,4.49-8.34,7.77-11.67s7.12-5.96,11.52-7.88,9.13-2.89,14.19-2.89,9.77.95,14.15,2.85,8.19,4.49,11.45,7.77c3.25,3.28,5.83,7.12,7.73,11.52s2.9,9.11,3,14.11v29.87c0,1.9-.65,3.52-1.96,4.84s-2.92,1.99-4.83,1.99-3.47-.67-4.68-2c-1.21-1.33-1.81-2.95-1.81-4.87l-.08-1.06c-3.15,2.62-6.67,4.65-10.57,6.11-3.9,1.46-8.05,2.19-12.45,2.19Zm0-13.35c3.3,0,6.35-.61,9.15-1.83,2.8-1.22,5.24-2.89,7.31-5.02,2.07-2.12,3.7-4.59,4.87-7.41,1.17-2.82,1.76-5.83,1.76-9.02s-.59-6.2-1.76-9.02c-1.17-2.82-2.8-5.28-4.87-7.37-2.07-2.1-4.51-3.75-7.31-4.98-2.8-1.22-5.85-1.83-9.15-1.83s-6.27.61-9.07,1.83c-2.8,1.22-5.22,2.88-7.27,4.98-2.05,2.1-3.67,4.55-4.87,7.37-1.2,2.82-1.8,5.83-1.8,9.02s.6,6.2,1.8,9.02c1.2,2.82,2.82,5.29,4.87,7.41,2.05,2.12,4.47,3.79,7.27,5.02,2.8,1.22,5.82,1.83,9.07,1.83Z"/>
          <path class="cls-4" d="m287.23,78c0-5.25,1.01-10.2,3.02-14.85s4.75-8.71,8.21-12.18c3.46-3.47,7.51-6.22,12.13-8.25,4.62-2.02,9.56-3.04,14.81-3.04h.38c2.25,0,3.96.63,5.14,1.88,1.17,1.25,1.76,2.82,1.76,4.72s-.67,3.48-2.02,4.72c-1.35,1.25-2.97,1.88-4.87,1.88h-.38c-3.4,0-6.6.66-9.6,1.99-3,1.33-5.64,3.12-7.91,5.4-2.28,2.28-4.07,4.94-5.4,7.99-1.33,3.05-1.99,6.3-1.99,9.75v27.44c0,1.9-.62,3.47-1.85,4.72-1.23,1.25-2.75,1.87-4.56,1.87-.9,0-1.77-.16-2.6-.49-.83-.32-1.56-.79-2.19-1.39-.63-.6-1.13-1.3-1.51-2.1-.38-.8-.56-1.67-.56-2.62v-27.44Z"/>
          <path class="cls-4" d="m341.89,46.36c0-.9.17-1.76.52-2.59.35-.82.84-1.54,1.46-2.14.62-.6,1.35-1.07,2.17-1.42.83-.35,1.71-.53,2.66-.53,1.85,0,3.39.65,4.61,1.95,1.22,1.3,1.84,2.88,1.84,4.72v59.61c0,1.85-.64,3.41-1.91,4.69-1.27,1.27-2.81,1.91-4.61,1.91s-3.44-.64-4.76-1.91c-1.32-1.28-1.99-2.84-1.99-4.69v-59.61Z"/>
        </g>
        <text class="cls-1" transform="translate(.91 153.33)"><tspan class="cls-7" x="0" y="0">A</tspan><tspan class="cls-6" x="31.51" y="0">GENCIA DE VI</tspan><tspan class="cls-2" x="359.46" y="0">A</tspan><tspan class="cls-5" x="392.18" y="0">JES</tspan></text>
      </g>
      <path class="cls-4" d="m348.3,34.38c-.39-9.08-7.73-16.82-17.52-17.32,10.42-1.37,16.17-7.25,17.57-17.06,1.33,9.83,7.14,15.65,17.06,16.99-9.94,1.36-15.78,7.17-17.11,17.38Z"/>
    </g>
  </g>
</svg>