<svg xmlns="http://www.w3.org/2000/svg" viewBox="0 0 176.18 151.72"><defs><style>.b7b0ff2e-b513-4dfd-bbb4-662e77846278{fill:#f50537;}</style></defs><g id="ab027c53-66b3-470c-b9c1-faacc0c48d1a" data-name="Capa 2"><g id="f946f1dd-4eca-4a74-91ce-6a794c950029" data-name="Capa 1"><g id="ae81cc8e-dd2e-4f57-9e0d-625d35c828a3" data-name="Capa 2"><g id="e1459005-0260-4587-9255-5b3adac948f5" data-name="Capa 1-2"><path class="b7b0ff2e-b513-4dfd-bbb4-662e77846278" d="M48.74,151.71a62.75,62.75,0,0,1-35.8-12.2,59.46,59.46,0,0,1-11.7-11.8c-1.6-2.1-1.7-3.4,0-5.5q5.25-6.6,10.8-12.9c2.7-3.1,5.8-5.9,8.7-8.8a8.64,8.64,0,0,1,1.1-.9c1.8-1.4,3-1.4,4.8,0,1.5,1.2,2.9,2.5,4.3,3.8a40.5,40.5,0,0,0,20.2,9.9c4.5.8,8.4-.3,11.5-3.8,2.1-2.4,2.1-4.3-.1-6.6a56.8,56.8,0,0,0-14.8-10.5c-7.2-3.7-14.4-7.4-21.1-12.1-7.2-5.1-13.3-11.1-17.2-19.1-8.2-16.5-5.3-34.5,7.6-47.7,5.8-5.9,12.5-10.3,20.8-11.9,12.8-2.4,25.6-2.5,37.9,2.4A60.21,60.21,0,0,1,88,11.11c1,.7,2,1.4,3,2.2a3,3,0,0,0,3.9.2c1.9-1.2,3.8-2.2,5.7-3.4a49.5,49.5,0,0,1,21.8-7.3c8.1-.7,16.1-.3,23.9,2.3,9,3.1,16.6,8.4,23.3,15.1a15.26,15.26,0,0,1,2.5,3.6,3,3,0,0,1-.3,3.6c-5.2,6.4-10.4,12.8-16.9,18-2.1,1.7-2.8,1.8-5.2.4-3.5-2.1-6.8-4.4-10.3-6.6-3.1-1.9-6.4-3.7-10.2-3.9a12.73,12.73,0,0,0-11.5,5.4c-1.3,1.7-1.1,3.1.7,5.3a29.85,29.85,0,0,0,7.8,6.2c5.6,3.3,11.4,6.2,17.2,9.3,6.6,3.5,13.1,7.2,18.7,12.1a40.48,40.48,0,0,1,14,28.9c1,17.8-7.1,30.7-21.6,40-5.2,3.4-11.2,4.7-17.3,5.6a71.32,71.32,0,0,1-10.2,1.1,60.69,60.69,0,0,1-20.2-2.9c-3.4-1.1-6.6-2.7-9.9-4.1-.1-.1-.3-.1-.4-.2-3-1.7-3.2-3.1-1.3-6s3.9-5.6,5.6-8.6a44.15,44.15,0,0,0,5.3-21.9c0-3.6-.1-7.2,0-10.8,0-2.6.5-3.1,3.1-3.5,1.9-.3,3.8-.6,5.6-.9a.89.89,0,0,0,.6-1.5,4.11,4.11,0,0,0-1.1-.7c-2.1-.9-4.2-1.8-6.2-2.8a11.07,11.07,0,0,1-5.1-4.7,83.73,83.73,0,0,1-7.5-15,1.94,1.94,0,0,1-.2-.7c-.3-.9-.1-1.4,1-1.6a196.32,196.32,0,0,1,20.2-3c1.9-.2,3.9-.5,5.8-.7a1.09,1.09,0,0,0,1-1.21,1.06,1.06,0,0,0-.26-.59,3.9,3.9,0,0,0-1.6-1.3c-7.1-3-14.6-4.8-22-7q-5-1.5-9.9-2.7a15,15,0,0,1-8.9-6.4,49.73,49.73,0,0,1-3-5,28.46,28.46,0,0,0-7.6-8.2c-1.8-1.3-3.8-.7-4.2,1.5a19.53,19.53,0,0,0,0,5.4c.6,4.1,2.6,7.6,4.9,10.9a12.32,12.32,0,0,1,1.6,10.9c-3.1,10.8-5.9,21.7-8.9,32.5a7.38,7.38,0,0,0-.2,2.1c0,1.1.8,1.6,1.7,1.1a6.31,6.31,0,0,0,1.9-1.7c4.4-5.5,8.8-11,13.3-16.5a16.18,16.18,0,0,1,1.8-1.9c1.2-1.1,1.9-1.1,2.9.2a58.11,58.11,0,0,1,3.5,5c2.3,3.8,4.6,7.7,6.7,11.6a5,5,0,0,1,.2,3c-.5,3.3-1.2,6.6-1.8,9.9a1,1,0,0,0,.4.9c.2.1.7-.1.9-.3,1-1.1,1.8-2.2,2.8-3.2s2.2-2,3.8-1.4,1.6,2.2,1.7,3.6c.6,7.5,0,14.9-2.9,22-2.7,6.7-6.3,12.8-12,17.5-4.4,3.6-9.5,5.7-14.7,7.7A76.72,76.72,0,0,1,48.74,151.71Z"/></g></g></g></g></svg>